<svg xmlns="http://www.w3.org/2000/svg" xmlns:xlink="http://www.w3.org/1999/xlink" width="10" height="10" viewBox="0 0 10 10">
  <defs>
    <clipPath id="clip-path">
      <rect id="Rectangle_162392" data-name="Rectangle 162392" width="10" height="10" transform="translate(-0.485 0)" fill="#08d500"/>
    </clipPath>
  </defs>
  <g id="SvgjsG1019" transform="translate(0.485 -0.354)">
    <g id="Group_177271" data-name="Group 177271" transform="translate(0 0.355)" style="isolation: isolate">
      <g id="Group_177270" data-name="Group 177270" clip-path="url(#clip-path)">
        <path id="Path_39081" data-name="Path 39081" d="M3.566,12.63h1.5a.52.52,0,0,1,.32.132L7.1,14.481c.219.219.4.145.4-.165V7.2c0-.31-.178-.384-.4-.165L5.385,8.751a.519.519,0,0,1-.32.132h-1.5A.562.562,0,0,0,3,9.445v2.623A.562.562,0,0,0,3.566,12.63Z" transform="translate(-2.543 -6.153)" fill="#08d500"/>
        <path id="Path_39082" data-name="Path 39082" d="M39.418,6.6h0a4.014,4.014,0,0,0-.766-2.359A4.129,4.129,0,0,0,36.694,2.78l-.178-.063a.187.187,0,0,1-.114-.239l.126-.353a.187.187,0,0,1,.239-.114l.176.063A4.875,4.875,0,0,1,39.259,3.8a4.767,4.767,0,0,1,.909,2.8h0a4.766,4.766,0,0,1-.909,2.8,4.878,4.878,0,0,1-2.316,1.733l-.176.063a.187.187,0,0,1-.239-.114L36.4,10.73a.187.187,0,0,1,.114-.239l.178-.063a4.129,4.129,0,0,0,1.958-1.465A4.014,4.014,0,0,0,39.418,6.6Zm.75,0Zm0,0" transform="translate(-30.807 -2)" fill="#08d500" fill-rule="evenodd"/>
        <path id="Path_39083" data-name="Path 39083" d="M36.584,15.211l-.168-.084a.188.188,0,0,1-.083-.252l.169-.336a.187.187,0,0,1,.251-.083l.166.084A3.2,3.2,0,0,1,38.131,15.6a2.717,2.717,0,0,1,0,3.056,3.2,3.2,0,0,1-1.212,1.062l-.166.084a.187.187,0,0,1-.252-.083l-.169-.334a.187.187,0,0,1,.083-.252l.168-.084a2.47,2.47,0,0,0,.927-.813,1.968,1.968,0,0,0,0-2.215A2.454,2.454,0,0,0,36.584,15.211Z" transform="translate(-30.74 -12.527)" fill="#08d500"/>
      </g>
    </g>
  </g>
</svg>
