<svg xmlns="http://www.w3.org/2000/svg" width="111.124" height="112.558" viewBox="0 0 111.124 112.558">
  <g id="Group_177438" data-name="Group 177438" transform="translate(-49 -39.6)">
    <g id="Group_177400" data-name="Group 177400" transform="translate(84.232 66.365)">
      <rect id="Rectangle_162426" data-name="Rectangle 162426" width="30.316" height="1.775" transform="translate(0 0)" fill="#008da7"/>
    </g>
    <g id="Group_177401" data-name="Group 177401" transform="translate(129.433 66.365)">
      <rect id="Rectangle_162427" data-name="Rectangle 162427" width="30.691" height="1.775" transform="translate(0 0)" fill="#008da7"/>
    </g>
    <g id="Group_177402" data-name="Group 177402" transform="translate(91.811 60.425)">
      <path id="Path_39263" data-name="Path 39263" d="M195.6,102.375a7.653,7.653,0,0,1,.2-1.775H174.4v3.585h21.405A7.948,7.948,0,0,1,195.6,102.375Z" transform="translate(-174.4 -100.6)" fill="#008da7"/>
      <path id="Path_39264" data-name="Path 39264" d="M288.368,100.6a14.954,14.954,0,0,1,.137,1.775,7.948,7.948,0,0,1-.2,1.809h21.064V100.6Z" transform="translate(-249.415 -100.6)" fill="#008da7"/>
    </g>
    <g id="Group_177403" data-name="Group 177403" transform="translate(75.765 74.866)">
      <rect id="Rectangle_162428" data-name="Rectangle 162428" width="1.775" height="30.316" transform="translate(0)" fill="#008da7"/>
    </g>
    <g id="Group_177404" data-name="Group 177404" transform="translate(75.765 121.466)">
      <rect id="Rectangle_162429" data-name="Rectangle 162429" width="1.775" height="30.691" transform="translate(0 0)" fill="#008da7"/>
    </g>
    <g id="Group_177405" data-name="Group 177405" transform="translate(69.791 82.445)">
      <path id="Path_39265" data-name="Path 39265" d="M111.675,186.3a7.652,7.652,0,0,0-1.775.2V165.1h3.585v21.405A7.947,7.947,0,0,0,111.675,186.3Z" transform="translate(-109.9 -165.1)" fill="#008da7"/>
      <path id="Path_39266" data-name="Path 39266" d="M110,278.968a14.954,14.954,0,0,0,1.775.137,7.947,7.947,0,0,0,1.809-.2v22.669H110Z" transform="translate(-109.966 -240.049)" fill="#008da7"/>
    </g>
    <g id="Group_177436" data-name="Group 177436" transform="translate(49 39.634)">
      <g id="Group_177420" data-name="Group 177420" transform="translate(0 30.077)">
        <g id="Group_177406" data-name="Group 177406" transform="translate(4.711)">
          <path id="Path_39267" data-name="Path 39267" d="M84.24,127.8l-3.551.1a9.671,9.671,0,0,1-4.575,7.34C72.12,137.905,62.8,145.484,62.8,158.184c0,12.9,8.979,19.664,17.855,19.664v-3.585c-5.735,0-14.3-4.267-14.3-16.08,0-10.959,8.193-17.616,11.71-19.937A13.384,13.384,0,0,0,84.24,127.8Z" transform="translate(-62.8 -127.8)" fill="#008da7"/>
        </g>
        <g id="Group_177407" data-name="Group 177407" transform="translate(15.431 35.744)">
          <circle id="Ellipse_661" data-name="Ellipse 661" cx="5.36" cy="5.36" r="5.36" transform="translate(1.775 1.741)" fill="#008da7"/>
          <path id="Path_39268" data-name="Path 39268" d="M101.335,246.77a7.135,7.135,0,1,1,7.135-7.135A7.154,7.154,0,0,1,101.335,246.77Zm0-3.585a3.585,3.585,0,1,0-3.585-3.585A3.584,3.584,0,0,0,101.335,243.186Z" transform="translate(-94.2 -232.5)" fill="#008da7"/>
        </g>
        <g id="Group_177408" data-name="Group 177408" transform="translate(11.644 10.72)">
          <path id="Path_39269" data-name="Path 39269" d="M90.719,159.2s-9.184,5.36,0,14.3c0,0-9.184,0-7.374-8.945C83.754,162.341,87.134,159.2,90.719,159.2Z" transform="translate(-83.108 -159.2)" fill="#008da7"/>
        </g>
        <g id="Group_177409" data-name="Group 177409" transform="translate(1.127 8.91)">
          <path id="Path_39270" data-name="Path 39270" d="M68.38,153.9s-7.135,5.36-16.08,0c0,0,0,7.135,8.945,7.135A7.014,7.014,0,0,0,68.38,153.9Z" transform="translate(-52.3 -153.9)" fill="#008da7"/>
        </g>
        <g id="Group_177418" data-name="Group 177418" transform="translate(0 17.173)">
          <g id="Group_177410" data-name="Group 177410" transform="translate(4.033)">
            <path id="Path_39271" data-name="Path 39271" d="M60.912,178.477h0a.662.662,0,0,0,.239.922.689.689,0,0,0,.922-.273.119.119,0,0,0,.034-.068v-.034h0a.689.689,0,0,0-.341-.888A.7.7,0,0,0,60.912,178.477Z" transform="translate(-60.815 -178.102)" fill="#008da7"/>
          </g>
          <g id="Group_177411" data-name="Group 177411" transform="translate(1.873 5.187)">
            <path id="Path_39272" data-name="Path 39272" d="M54.56,193.878l-.034.068a.821.821,0,0,0,1.57.478v-.034l.034-.068a.8.8,0,0,0-.58-.99A.813.813,0,0,0,54.56,193.878Z" transform="translate(-54.488 -193.296)" fill="#008da7"/>
          </g>
          <g id="Group_177412" data-name="Group 177412" transform="translate(0.529 10.581)">
            <path id="Path_39273" data-name="Path 39273" d="M50.567,209.949v.068a.985.985,0,1,0,1.946.307v-.137a.969.969,0,0,0-.853-1.092A1.066,1.066,0,0,0,50.567,209.949Z" transform="translate(-50.551 -209.094)" fill="#008da7"/>
          </g>
          <g id="Group_177413" data-name="Group 177413" transform="translate(0 16.146)">
            <path id="Path_39274" data-name="Path 39274" d="M49,226.557v.068a1.161,1.161,0,0,0,2.321,0v-.137a1.143,1.143,0,0,0-1.195-1.092A1.166,1.166,0,0,0,49,226.557Z" transform="translate(-49 -225.395)" fill="#008da7"/>
          </g>
          <g id="Group_177414" data-name="Group 177414" transform="translate(0.742 21.64)">
            <path id="Path_39275" data-name="Path 39275" d="M51.216,243.131l.034.068a1.308,1.308,0,0,0,2.526-.683c0-.034,0-.034-.034-.068l-.034-.068h0a1.3,1.3,0,0,0-2.492.751Z" transform="translate(-51.173 -241.489)" fill="#008da7"/>
          </g>
          <g id="Group_177415" data-name="Group 177415" transform="translate(3.054 26.65)">
            <path id="Path_39276" data-name="Path 39276" d="M58.169,258.4l.034.068a1.458,1.458,0,1,0,2.458-1.57c0-.034-.034-.034-.034-.068l-.034-.068h0a1.464,1.464,0,0,0-2.424,1.639Z" transform="translate(-57.946 -256.165)" fill="#008da7"/>
          </g>
          <g id="Group_177416" data-name="Group 177416" transform="translate(6.872 30.545)">
            <path id="Path_39277" data-name="Path 39277" d="M69.767,270.518l.068.034a1.632,1.632,0,1,0,1.98-2.595c-.034-.034-.068-.034-.068-.068l-.068-.034h0a1.64,1.64,0,0,0-1.912,2.663Z" transform="translate(-69.128 -267.572)" fill="#008da7"/>
          </g>
          <g id="Group_177417" data-name="Group 177417" transform="translate(11.895 32.836)">
            <path id="Path_39278" data-name="Path 39278" d="M85.125,277.806h.034a1.794,1.794,0,1,0,.99-3.448c-.034,0-.068-.034-.1-.034h-.034a1.8,1.8,0,0,0-.888,3.482Z" transform="translate(-83.842 -274.285)" fill="#008da7"/>
          </g>
        </g>
        <g id="Group_177419" data-name="Group 177419" transform="translate(10.28 24.99)">
          <path id="Path_39279" data-name="Path 39279" d="M80.678,201a14.984,14.984,0,0,0-1.5,7.989,11.279,11.279,0,0,0,1.229,4.165,13.869,13.869,0,0,0,2.731,3.585l2.151-2.868a10.084,10.084,0,0,1-2.629-2.185,9.1,9.1,0,0,1-1.741-3.073A14.683,14.683,0,0,1,80.678,201Z" transform="translate(-79.112 -201)" fill="#008da7"/>
        </g>
      </g>
      <g id="Group_177435" data-name="Group 177435" transform="translate(30.077 0)">
        <g id="Group_177421" data-name="Group 177421" transform="translate(0 4.711)">
          <path id="Path_39280" data-name="Path 39280" d="M137.1,74.94l.1-3.551a9.671,9.671,0,0,0,7.34-4.575C147.205,62.82,154.784,53.5,167.484,53.5c12.9,0,19.664,8.979,19.664,17.855h-3.585c0-5.735-4.267-14.3-16.08-14.3-10.959,0-17.616,8.193-19.937,11.71A13.384,13.384,0,0,1,137.1,74.94Z" transform="translate(-137.1 -53.5)" fill="#008da7"/>
        </g>
        <g id="Group_177422" data-name="Group 177422" transform="translate(35.744 15.431)">
          <circle id="Ellipse_662" data-name="Ellipse 662" cx="5.36" cy="5.36" r="5.36" transform="translate(1.775 1.775)" fill="#008da7"/>
          <path id="Path_39281" data-name="Path 39281" d="M248.935,99.17a7.135,7.135,0,1,1,7.135-7.135A7.154,7.154,0,0,1,248.935,99.17Zm0-10.72a3.585,3.585,0,1,0,3.585,3.585A3.584,3.584,0,0,0,248.935,88.451Z" transform="translate(-241.8 -84.9)" fill="#008da7"/>
        </g>
        <g id="Group_177423" data-name="Group 177423" transform="translate(10.72 11.61)">
          <path id="Path_39282" data-name="Path 39282" d="M168.5,81.319s5.36-9.184,14.3,0c0,0,0-9.184-8.945-7.374C171.675,74.388,168.5,77.768,168.5,81.319Z" transform="translate(-168.5 -73.708)" fill="#008da7"/>
        </g>
        <g id="Group_177424" data-name="Group 177424" transform="translate(8.945 1.127)">
          <path id="Path_39283" data-name="Path 39283" d="M163.3,59.08s5.36-7.135,0-16.08c0,0,7.135,0,7.135,8.945A7.037,7.037,0,0,1,163.3,59.08Z" transform="translate(-163.3 -43)" fill="#008da7"/>
        </g>
        <g id="Group_177433" data-name="Group 177433" transform="translate(17.189)">
          <g id="Group_177425" data-name="Group 177425" transform="translate(0 3.999)">
            <path id="Path_39284" data-name="Path 39284" d="M187.808,51.512h0a.662.662,0,0,1,.922.239.689.689,0,0,1-.273.922.119.119,0,0,1-.068.034h-.034a.689.689,0,0,1-.888-.341A.835.835,0,0,1,187.808,51.512Z" transform="translate(-187.449 -51.415)" fill="#008da7"/>
          </g>
          <g id="Group_177426" data-name="Group 177426" transform="translate(5.183 1.873)">
            <path id="Path_39285" data-name="Path 39285" d="M203.2,45.26l.068-.034a.821.821,0,1,1,.478,1.57h-.034l-.068.034a.8.8,0,0,1-.99-.58A.826.826,0,0,1,203.2,45.26Z" transform="translate(-202.631 -45.188)" fill="#008da7"/>
          </g>
          <g id="Group_177427" data-name="Group 177427" transform="translate(10.567 0.529)">
            <path id="Path_39286" data-name="Path 39286" d="M219.253,41.267h.068a.985.985,0,0,1,.307,1.946h-.137a.969.969,0,0,1-1.092-.853A1.048,1.048,0,0,1,219.253,41.267Z" transform="translate(-218.4 -41.251)" fill="#008da7"/>
          </g>
          <g id="Group_177428" data-name="Group 177428" transform="translate(16.13)">
            <path id="Path_39287" data-name="Path 39287" d="M235.857,39.7h.068a1.161,1.161,0,0,1,0,2.321h-.137a1.143,1.143,0,0,1-1.092-1.195A1.166,1.166,0,0,1,235.857,39.7Z" transform="translate(-234.695 -39.7)" fill="#008da7"/>
          </g>
          <g id="Group_177429" data-name="Group 177429" transform="translate(21.658 0.729)">
            <path id="Path_39288" data-name="Path 39288" d="M252.531,41.892l.068.034a1.35,1.35,0,0,1,.922,1.6,1.334,1.334,0,0,1-1.6.922c-.034,0-.034,0-.068-.034l-.068-.034h0a1.286,1.286,0,0,1-.819-1.639A1.245,1.245,0,0,1,252.531,41.892Z" transform="translate(-250.889 -41.836)" fill="#008da7"/>
          </g>
          <g id="Group_177430" data-name="Group 177430" transform="translate(26.668 3.045)">
            <path id="Path_39289" data-name="Path 39289" d="M267.8,48.852l.068.034a1.458,1.458,0,1,1-1.57,2.458c-.034,0-.034-.034-.068-.034l-.068-.034h0a1.469,1.469,0,0,1-.307-2.048A1.41,1.41,0,0,1,267.8,48.852Z" transform="translate(-265.565 -48.62)" fill="#008da7"/>
          </g>
          <g id="Group_177431" data-name="Group 177431" transform="translate(30.529 6.862)">
            <path id="Path_39290" data-name="Path 39290" d="M279.818,60.414l.034.068a1.632,1.632,0,0,1-2.595,1.98c-.034-.034-.034-.068-.068-.068l-.034-.068h0a1.609,1.609,0,0,1,.444-2.253A1.676,1.676,0,0,1,279.818,60.414Z" transform="translate(-276.872 -59.799)" fill="#008da7"/>
          </g>
          <g id="Group_177432" data-name="Group 177432" transform="translate(32.82 11.893)">
            <path id="Path_39291" data-name="Path 39291" d="M287.106,75.821v.034h0a1.794,1.794,0,0,1-3.448.99c0-.034-.034-.068-.034-.1v-.034h0a1.789,1.789,0,0,1,1.366-2.117A1.735,1.735,0,0,1,287.106,75.821Z" transform="translate(-283.585 -74.536)" fill="#008da7"/>
          </g>
        </g>
        <g id="Group_177434" data-name="Group 177434" transform="translate(25.024 10.28)">
          <path id="Path_39292" data-name="Path 39292" d="M210.4,71.378a14.984,14.984,0,0,1,7.989-1.5,11.279,11.279,0,0,1,4.165,1.229,13.869,13.869,0,0,1,3.585,2.731l-2.9,2.185a10.084,10.084,0,0,0-2.185-2.629,9.1,9.1,0,0,0-3.073-1.741A14.213,14.213,0,0,0,210.4,71.378Z" transform="translate(-210.4 -69.812)" fill="#008da7"/>
        </g>
      </g>
      <path id="Path_39293" data-name="Path 39293" d="M98.321,88.955l.785-3.926c-1.57-3.141-.853-7.272-1.57-9.388-.785-2.356-2.629-2.356-7.033-2.356a49.061,49.061,0,0,1-8.6-.785,49.061,49.061,0,0,1,.785,8.6c0,4.438,0,6.248,2.356,7.033,2.083.683,6.248,0,9.388,1.57Z" transform="translate(-70.668 -61.302)" fill="#008da7"/>
    </g>
    <g id="Group_177437" data-name="Group 177437" transform="translate(49 39.6)">
      <path id="Path_39294" data-name="Path 39294" d="M69.265,135.242a32.938,32.938,0,0,0-3.858,3A14.848,14.848,0,0,1,52.4,136.71s.034,6.657,8.125,7.1a25.051,25.051,0,0,0-4.541,14.339c0,12.9,8.979,19.664,17.855,19.664a7.135,7.135,0,1,0-7.135-7.135,8.967,8.967,0,0,0,.2,1.673c-3.96-2.287-7.374-6.725-7.374-14.168a21.2,21.2,0,0,1,3.38-11.505c.444,6.145,7.579,6.145,7.579,6.145-5.8-5.667-4.267-9.866-2.356-12.222a30.873,30.873,0,0,1,3.107-2.39A13.323,13.323,0,0,0,77.39,127.8l-3.551.1A9.671,9.671,0,0,1,69.265,135.242Z" transform="translate(-51.239 -97.689)" fill="#008da7"/>
      <path id="Path_39295" data-name="Path 39295" d="M62,179.188a.119.119,0,0,0,.034-.068v-.034h0a.689.689,0,0,0-.341-.888.678.678,0,0,0-.853.307v.034a.689.689,0,0,0,.273.922A.672.672,0,0,0,62,179.188Z" transform="translate(-56.747 -130.846)" fill="#008da7"/>
      <path id="Path_39296" data-name="Path 39296" d="M56.2,194.547v-.034l.034-.068a.8.8,0,0,0-.58-.99.843.843,0,0,0-.99.546l-.034.068a.807.807,0,0,0,.546,1.024A.9.9,0,0,0,56.2,194.547Z" transform="translate(-52.68 -140.914)" fill="#008da7"/>
      <path id="Path_39297" data-name="Path 39297" d="M52.513,210.414v-.137a.969.969,0,0,0-.853-1.092,1.008,1.008,0,0,0-1.092.819v.068a.954.954,0,0,0,.819,1.127A.964.964,0,0,0,52.513,210.414Z" transform="translate(-50.021 -151.284)" fill="#008da7"/>
      <path id="Path_39298" data-name="Path 39298" d="M51.287,226.626v-.137a1.144,1.144,0,0,0-2.287.034v.068a1.151,1.151,0,0,0,1.161,1.161A1.094,1.094,0,0,0,51.287,226.626Z" transform="translate(-49 -161.966)" fill="#008da7"/>
      <path id="Path_39299" data-name="Path 39299" d="M52.859,244.121a1.35,1.35,0,0,0,.922-1.6c0-.034,0-.034-.034-.068l-.034-.068h0a1.286,1.286,0,0,0-1.639-.819,1.356,1.356,0,0,0-.853,1.6l.034.068A1.3,1.3,0,0,0,52.859,244.121Z" transform="translate(-50.435 -172.565)" fill="#008da7"/>
      <path id="Path_39300" data-name="Path 39300" d="M60.318,258.908a1.454,1.454,0,0,0,.444-2.014c0-.034-.034-.034-.034-.068l-.034-.068h0a1.469,1.469,0,0,0-2.048-.307,1.5,1.5,0,0,0-.376,1.98l.034.068A1.469,1.469,0,0,0,60.318,258.908Z" transform="translate(-54.958 -182.231)" fill="#008da7"/>
      <path id="Path_39301" data-name="Path 39301" d="M71.862,268.057c-.034-.034-.068-.034-.068-.068l-.068-.034h0a1.609,1.609,0,0,0-2.253.444,1.688,1.688,0,0,0,.341,2.219l.068.034a1.632,1.632,0,1,0,1.98-2.595Z" transform="translate(-62.303 -189.809)" fill="#008da7"/>
      <path id="Path_39302" data-name="Path 39302" d="M85.971,274.324h-.034a1.777,1.777,0,0,0-.853,3.448h.034a1.794,1.794,0,0,0,.99-3.448C86.04,274.358,86.005,274.358,85.971,274.324Z" transform="translate(-71.906 -194.164)" fill="#008da7"/>
      <path id="Path_39303" data-name="Path 39303" d="M80.989,208.613A14.325,14.325,0,0,1,80.716,201a14.653,14.653,0,0,0-1.468,7.989,11.279,11.279,0,0,0,1.229,4.165,13.869,13.869,0,0,0,2.731,3.585l2.151-2.868a10.084,10.084,0,0,1-2.629-2.185A8.781,8.781,0,0,1,80.989,208.613Z" transform="translate(-68.87 -145.899)" fill="#008da7"/>
      <path id="Path_39304" data-name="Path 39304" d="M153.211,51.125c-.444-8.091-7.1-8.125-7.1-8.125a14.853,14.853,0,0,1,1.536,13.007,32.94,32.94,0,0,0-3,3.858,9.671,9.671,0,0,1-7.34,4.575l-.1,3.551a13.281,13.281,0,0,0,10.413-6.145A33.764,33.764,0,0,1,150,58.738c2.321-1.912,6.555-3.482,12.222,2.356,0,0,0-7.135-6.145-7.579a21.2,21.2,0,0,1,11.505-3.38c7.442,0,11.881,3.414,14.168,7.374a6.8,6.8,0,0,0-1.673-.2,7.135,7.135,0,1,0,7.135,7.135c0-8.876-6.76-17.855-19.664-17.855A24.8,24.8,0,0,0,153.211,51.125Z" transform="translate(-107.089 -41.839)" fill="#008da7"/>
      <path id="Path_39305" data-name="Path 39305" d="M188.385,52.686h.034a.119.119,0,0,1,.068-.034.68.68,0,1,0-.649-1.195h-.034a.678.678,0,0,0-.307.853A.659.659,0,0,0,188.385,52.686Z" transform="translate(-140.181 -47.36)" fill="#008da7"/>
      <path id="Path_39306" data-name="Path 39306" d="M203.644,46.831l.068-.034h.034a.821.821,0,1,0-.478-1.57l-.068.034a.843.843,0,0,0-.546.99A.818.818,0,0,0,203.644,46.831Z" transform="translate(-150.182 -43.28)" fill="#008da7"/>
      <path id="Path_39307" data-name="Path 39307" d="M219.711,43.229h.068a.985.985,0,0,0-.307-1.946H219.4a1.008,1.008,0,0,0-.819,1.092.969.969,0,0,0,1.092.853Z" transform="translate(-160.684 -40.703)" fill="#008da7"/>
      <path id="Path_39308" data-name="Path 39308" d="M235.923,39.634a1.108,1.108,0,0,0-1.127,1.092,1.123,1.123,0,0,0,1.092,1.195h.137a1.161,1.161,0,1,0,0-2.321Z" transform="translate(-171.366 -39.6)" fill="#008da7"/>
      <path id="Path_39309" data-name="Path 39309" d="M251.646,44.408l.068.034c.034,0,.034,0,.068.034a1.308,1.308,0,0,0,.683-2.526l-.068-.034a1.3,1.3,0,0,0-.751,2.492Z" transform="translate(-181.865 -41.097)" fill="#008da7"/>
      <path id="Path_39310" data-name="Path 39310" d="M266.043,51.276h0l.068.034c.034,0,.034.034.068.034a1.458,1.458,0,1,0,1.57-2.458l-.068-.034a1.458,1.458,0,0,0-1.98.376A1.507,1.507,0,0,0,266.043,51.276Z" transform="translate(-191.55 -45.54)" fill="#008da7"/>
      <path id="Path_39311" data-name="Path 39311" d="M277.727,60.073a1.639,1.639,0,0,0-.444,2.253h0l.034.068a.073.073,0,0,0,.068.068,1.632,1.632,0,1,0,2.595-1.98l-.034-.068A1.688,1.688,0,0,0,277.727,60.073Z" transform="translate(-199.173 -52.903)" fill="#008da7"/>
      <path id="Path_39312" data-name="Path 39312" d="M285.09,74.517a1.789,1.789,0,0,0-1.366,2.117h0v.034a.125.125,0,0,0,.034.1,1.794,1.794,0,0,0,3.448-.99h0v-.034A1.828,1.828,0,0,0,285.09,74.517Z" transform="translate(-203.564 -62.568)" fill="#008da7"/>
      <path id="Path_39313" data-name="Path 39313" d="M226.038,73.936a13.316,13.316,0,0,0-3.585-2.731,11.019,11.019,0,0,0-4.165-1.229,15.364,15.364,0,0,0-7.989,1.468,14,14,0,0,1,7.613.273,8.781,8.781,0,0,1,3.073,1.741,10.673,10.673,0,0,1,2.185,2.629Z" transform="translate(-155.233 -59.563)" fill="#008da7"/>
      <path id="Path_39314" data-name="Path 39314" d="M97.536,75.641c-.785-2.356-2.629-2.356-7.033-2.356a49.061,49.061,0,0,1-8.6-.785,49.061,49.061,0,0,1,.785,8.6c0,4.438,0,6.248,2.356,7.033,2.083.683,6.248,0,9.388,1.57l3.926-.785L99.14,85C97.536,81.888,98.253,77.757,97.536,75.641Z" transform="translate(-70.668 -61.268)" fill="#008da7"/>
    </g>
  </g>
</svg>
