<svg xmlns="http://www.w3.org/2000/svg" width="665.741" height="26.451" viewBox="0 0 665.741 26.451">
  <g id="Group_177325" data-name="Group 177325" transform="translate(-1005.579 -5044.274)">
    <g id="Group_177225" data-name="Group 177225" transform="translate(1005.579 5044.274)">
      <path id="Path_39067" data-name="Path 39067" d="M848.149,702.48c-1.391-.715-2.219.113-4.174,2.106a31.533,31.533,0,0,1-4.174,3.5,28.993,28.993,0,0,1,4.174,3.5c1.956,1.956,2.783,2.783,4.174,2.106,1.241-.639,2.783-2.783,4.889-3.5l1.391-2.106-1.391-2.106C850.932,705.263,849.39,703.119,848.149,702.48Z" transform="translate(-839.8 -694.834)" fill="#9a9a9a"/>
      <g id="Group_177224" data-name="Group 177224" transform="translate(10.542)">
        <g id="Group_177220" data-name="Group 177220" transform="translate(0 12.459)">
          <g id="Group_177218" data-name="Group 177218">
            <path id="Path_39068" data-name="Path 39068" d="M880.38,716.339l-.978-.639a3.276,3.276,0,0,1-2.595,1.241,9.16,9.16,0,0,0-7.747,3.911c-2.332,3.535-1.053,6.995,1.391,8.574l.639-.978c-1.579-1.015-3.159-3.723-1.015-6.957,1.956-3.009,5.415-3.347,6.769-3.385A4.283,4.283,0,0,0,880.38,716.339Z" transform="translate(-867.831 -715.7)" fill="#9a9a9a"/>
          </g>
          <g id="Group_177219" data-name="Group 177219" transform="translate(1.556 9.315)">
            <circle id="Ellipse_648" data-name="Ellipse 648" cx="1.768" cy="1.768" r="1.768" transform="translate(0.613 0.576)" fill="#9a9a9a"/>
            <path id="Path_39069" data-name="Path 39069" d="M873.034,744.768a2.336,2.336,0,1,1,3.234-.677A2.346,2.346,0,0,1,873.034,744.768Zm.639-.978a1.168,1.168,0,1,0-.339-1.617A1.194,1.194,0,0,0,873.673,743.79Z" transform="translate(-871.969 -740.469)" fill="#9a9a9a"/>
          </g>
        </g>
        <g id="Group_177223" data-name="Group 177223">
          <g id="Group_177221" data-name="Group 177221" transform="translate(0 0.237)">
            <path id="Path_39070" data-name="Path 39070" d="M880.38,696.287l-.978.639a3.276,3.276,0,0,0-2.595-1.241,9.16,9.16,0,0,1-7.747-3.911c-2.332-3.535-1.053-6.995,1.391-8.574l.639.978c-1.579,1.015-3.159,3.723-1.015,6.957,1.956,3.009,5.415,3.347,6.769,3.385A4.283,4.283,0,0,1,880.38,696.287Z" transform="translate(-867.831 -683.2)" fill="#9a9a9a"/>
          </g>
          <g id="Group_177222" data-name="Group 177222" transform="translate(1.594)">
            <circle id="Ellipse_649" data-name="Ellipse 649" cx="1.768" cy="1.768" r="1.768" transform="translate(0.576 0.576)" fill="#9a9a9a"/>
            <path id="Path_39071" data-name="Path 39071" d="M876.368,683.634a2.336,2.336,0,1,1-3.234-.677A2.32,2.32,0,0,1,876.368,683.634Zm-2.971,1.918a1.168,1.168,0,1,0,.338-1.617A1.194,1.194,0,0,0,873.4,685.552Z" transform="translate(-872.069 -682.569)" fill="#9a9a9a"/>
          </g>
        </g>
      </g>
    </g>
    <g id="Group_177233" data-name="Group 177233" transform="translate(1648.23 5044.274)">
      <path id="Path_39072" data-name="Path 39072" d="M1306.88,713.52c1.391.715,2.219-.113,4.174-2.106a31.531,31.531,0,0,1,4.174-3.5,28.991,28.991,0,0,1-4.174-3.5c-1.956-1.956-2.783-2.783-4.174-2.106-1.241.639-2.783,2.783-4.889,3.5l-1.391,2.106,1.391,2.106C1304.1,710.737,1305.639,712.919,1306.88,713.52Z" transform="translate(-1292.139 -694.743)" fill="#9a9a9a"/>
      <g id="Group_177232" data-name="Group 177232">
        <g id="Group_177228" data-name="Group 177228">
          <g id="Group_177226" data-name="Group 177226" transform="translate(0 0.237)">
            <path id="Path_39073" data-name="Path 39073" d="M1278.1,696.287l.978.639a3.276,3.276,0,0,1,2.595-1.241,9.16,9.16,0,0,0,7.747-3.911c2.332-3.535,1.053-6.995-1.391-8.574l-.639.978c1.579,1.015,3.159,3.723,1.053,6.957-1.956,3.009-5.415,3.347-6.769,3.385A4.391,4.391,0,0,0,1278.1,696.287Z" transform="translate(-1278.1 -683.2)" fill="#9a9a9a"/>
          </g>
          <g id="Group_177227" data-name="Group 177227" transform="translate(6.306)">
            <circle id="Ellipse_650" data-name="Ellipse 650" cx="1.768" cy="1.768" r="1.768" transform="translate(0.576 0.576)" fill="#9a9a9a"/>
            <path id="Path_39074" data-name="Path 39074" d="M1298.491,682.957a2.336,2.336,0,1,1-3.234.677A2.32,2.32,0,0,1,1298.491,682.957Zm-.639.978a1.168,1.168,0,1,0,.339,1.617A1.194,1.194,0,0,0,1297.852,683.935Z" transform="translate(-1294.87 -682.569)" fill="#9a9a9a"/>
          </g>
        </g>
        <g id="Group_177231" data-name="Group 177231" transform="translate(0 12.459)">
          <g id="Group_177229" data-name="Group 177229">
            <path id="Path_39075" data-name="Path 39075" d="M1278.1,716.339l.978-.639a3.276,3.276,0,0,0,2.595,1.241,9.16,9.16,0,0,1,7.747,3.911c2.332,3.535,1.053,6.995-1.391,8.574l-.639-.978c1.579-1.015,3.159-3.723,1.053-6.957-1.956-3.009-5.415-3.347-6.769-3.385A4.392,4.392,0,0,1,1278.1,716.339Z" transform="translate(-1278.1 -715.7)" fill="#9a9a9a"/>
          </g>
          <g id="Group_177230" data-name="Group 177230" transform="translate(6.306 9.315)">
            <circle id="Ellipse_651" data-name="Ellipse 651" cx="1.768" cy="1.768" r="1.768" transform="translate(0.576 0.576)" fill="#9a9a9a"/>
            <path id="Path_39076" data-name="Path 39076" d="M1295.257,744.091a2.336,2.336,0,1,1,3.234.677A2.353,2.353,0,0,1,1295.257,744.091Zm2.933-1.918a1.168,1.168,0,1,0-.338,1.617A1.194,1.194,0,0,0,1298.19,742.173Z" transform="translate(-1294.869 -740.469)" fill="#9a9a9a"/>
          </g>
        </g>
      </g>
    </g>
    <rect id="Rectangle_162376" data-name="Rectangle 162376" width="650.885" height="1.504" transform="translate(1014.891 5056.734)" fill="#9a9a9a"/>
  </g>
</svg>
