<svg id="direct-download" xmlns="http://www.w3.org/2000/svg" width="20.757" height="17.297" viewBox="0 0 20.757 17.297">
  <path id="Path_39084" data-name="Path 39084" d="M11.189,14.108a.648.648,0,0,1-.469-.2L6.18,9.151a.649.649,0,0,1,.469-1.1H9.027V3.081A1.083,1.083,0,0,1,10.108,2H12.27a1.083,1.083,0,0,1,1.081,1.081V8.054H15.73a.649.649,0,0,1,.469,1.1l-4.541,4.757A.648.648,0,0,1,11.189,14.108Z" transform="translate(-0.811 -2)" fill="#fdfdfd"/>
  <path id="Path_39085" data-name="Path 39085" d="M19.243,21.459H1.514A1.515,1.515,0,0,1,0,19.946v-.432A1.515,1.515,0,0,1,1.514,18h17.73a1.515,1.515,0,0,1,1.514,1.514v.432A1.515,1.515,0,0,1,19.243,21.459Z" transform="translate(0 -4.162)" fill="#fdfdfd"/>
</svg>
