<svg xmlns="http://www.w3.org/2000/svg" width="12.176" height="10.146" viewBox="0 0 12.176 10.146">
  <g id="direct-download" transform="translate(0 -2)">
    <path id="Path_39084" data-name="Path 39084" d="M9.044,9.1a.38.38,0,0,1-.275-.118L6.105,6.195a.381.381,0,0,1,.275-.643h1.4V2.634A.635.635,0,0,1,8.409,2H9.678a.635.635,0,0,1,.634.634V5.551h1.4a.381.381,0,0,1,.275.643L9.319,8.985A.38.38,0,0,1,9.044,9.1Z" transform="translate(-2.956)" fill="#008da7"/>
    <path id="Path_39085" data-name="Path 39085" d="M11.288,20.029H.888A.889.889,0,0,1,0,19.141v-.254A.889.889,0,0,1,.888,18h10.4a.889.889,0,0,1,.888.888v.254A.889.889,0,0,1,11.288,20.029Z" transform="translate(0 -7.883)" fill="#008da7"/>
  </g>
</svg>
