<svg xmlns="http://www.w3.org/2000/svg" xmlns:xlink="http://www.w3.org/1999/xlink" width="130.904" height="109.058" viewBox="0 0 130.904 109.058">
  <defs>
    <linearGradient id="linear-gradient" x1="0.542" y1="0.818" x2="0.376" y2="-0.389" gradientUnits="objectBoundingBox">
      <stop offset="0" stop-color="#fff" stop-opacity="0"/>
      <stop offset="0.95" stop-color="#fff"/>
    </linearGradient>
    <linearGradient id="linear-gradient-2" x1="0.526" y1="0.869" x2="0.451" y2="-0.197" gradientUnits="objectBoundingBox">
      <stop offset="0" stop-color="#010101" stop-opacity="0"/>
      <stop offset="0.95" stop-color="#010101"/>
    </linearGradient>
    <linearGradient id="linear-gradient-3" x1="-0.001" y1="0.5" x2="1.001" y2="0.5" xlink:href="#linear-gradient-2"/>
    <linearGradient id="linear-gradient-4" x1="0.522" y1="-0.015" x2="0.445" y2="1.815" xlink:href="#linear-gradient-2"/>
    <linearGradient id="linear-gradient-5" x1="0.495" y1="-0.7" x2="0.505" y2="1.727" xlink:href="#linear-gradient-2"/>
    <linearGradient id="linear-gradient-6" x1="0.46" y1="0.922" x2="0.557" y2="-1.272" xlink:href="#linear-gradient"/>
    <linearGradient id="linear-gradient-7" x1="0.493" y1="0.888" x2="0.537" y2="-4.631" xlink:href="#linear-gradient-2"/>
    <linearGradient id="linear-gradient-8" x1="0.523" y1="-0.183" x2="0.467" y2="1.485" xlink:href="#linear-gradient"/>
    <linearGradient id="linear-gradient-9" x1="-1.767" y1="0.137" x2="-1.799" y2="3.545" xlink:href="#linear-gradient"/>
    <linearGradient id="linear-gradient-10" x1="13.176" y1="-55.67" x2="13.143" y2="-51.467" xlink:href="#linear-gradient"/>
    <linearGradient id="linear-gradient-11" x1="-7.976" y1="6.885" x2="-8.003" y2="9.115" xlink:href="#linear-gradient"/>
    <linearGradient id="linear-gradient-12" x1="4.598" y1="-46.672" x2="4.562" y2="-43.412" xlink:href="#linear-gradient"/>
    <linearGradient id="linear-gradient-13" x1="8.051" y1="-2.916" x2="8.023" y2="-0.53" xlink:href="#linear-gradient"/>
    <linearGradient id="linear-gradient-14" x1="32.442" y1="-30.418" x2="32.408" y2="-26.956" xlink:href="#linear-gradient"/>
    <linearGradient id="linear-gradient-15" x1="8.398" y1="-3.316" x2="8.37" y2="-0.93" xlink:href="#linear-gradient"/>
    <linearGradient id="linear-gradient-16" x1="34.631" y1="-31.151" x2="34.597" y2="-27.691" xlink:href="#linear-gradient"/>
    <linearGradient id="linear-gradient-17" x1="-11.759" y1="12.327" x2="-11.787" y2="14.788" xlink:href="#linear-gradient"/>
    <linearGradient id="linear-gradient-18" x1="12.07" y1="-36.807" x2="12.036" y2="-33.361" xlink:href="#linear-gradient"/>
    <linearGradient id="linear-gradient-19" x1="7.226" y1="-1.909" x2="7.198" y2="0.4" xlink:href="#linear-gradient"/>
    <linearGradient id="linear-gradient-20" x1="26.211" y1="-31.32" x2="26.176" y2="-27.926" xlink:href="#linear-gradient"/>
    <linearGradient id="linear-gradient-21" x1="-3.034" y1="0.635" x2="-3.064" y2="3.732" xlink:href="#linear-gradient"/>
    <linearGradient id="linear-gradient-22" x1="10.98" y1="-50.594" x2="10.947" y2="-46.63" xlink:href="#linear-gradient"/>
    <linearGradient id="linear-gradient-23" x1="0.503" y1="-0.339" x2="0.496" y2="2.798" gradientUnits="objectBoundingBox">
      <stop offset="0" stop-color="#fff" stop-opacity="0"/>
      <stop offset="0.39" stop-color="#fff"/>
    </linearGradient>
  </defs>
  <g id="Sent_messages__Monochromatic" data-name="Sent messages _Monochromatic" transform="translate(-0.001 0.003)">
    <path id="Path_39132" data-name="Path 39132" d="M150.451,88.061a12.273,12.273,0,0,1-.376,2.091,17.854,17.854,0,0,1-1.891,4.508c-4.829,8.428-14.276,13.3-23.794,15.278s-19.338,1.555-29.054,2c-13.1.6-26.174,2.81-39.285,2.1a88.875,88.875,0,0,1-18.384-2.978c-28.959,0-14.8-44.224-13.137-60.991.719-7.223,1.558-14.795,5.681-20.768,4.877-7.078,13.51-10.6,21.958-12.137s17.137-1.455,25.547-3.216c13.723-2.88,26.99-10.652,40.826-8.438,13.583,2.172,24.6,15.106,24.6,28.856,0,9.653-4.381,19.251-1.866,28.864C143.458,71.588,151.3,78.982,150.451,88.061Z" transform="translate(-19.61 -5.13)" fill="#68e1fd" opacity="0.24" style="isolation: isolate"/>
    <path id="Path_39133" data-name="Path 39133" d="M95.148,100.731a37.169,37.169,0,0,0-9.162,2.5,38.849,38.849,0,0,0-6.079,3.694c-5.866,4.11-11.864,8.826-14.327,15.554a18.837,18.837,0,0,0,17.49,25.3,16.749,16.749,0,0,1-1.58-24.545,23.066,23.066,0,0,1,6.685-4.674c7.855-3.832,16.844-4.729,25.577-4.386s12.072-1.723,20.789-1c-1.946-4.844.984-5.944-1.783-10.372-4.068-6.512-8.456-5.415-15.4-4.809C109.928,98.667,102.5,99.453,95.148,100.731Z" transform="translate(-53.209 -74.384)" fill="#68e1fd" opacity="0.24" style="isolation: isolate"/>
    <path id="Path_39134" data-name="Path 39134" d="M89.513,96.371a37.17,37.17,0,0,0-9.162,2.5,38.826,38.826,0,0,0-6.076,3.694c-5.866,4.113-11.864,8.829-14.324,15.556a18.837,18.837,0,0,0,17.487,25.3A16.746,16.746,0,0,1,75.86,118.89a23.021,23.021,0,0,1,6.682-4.674c7.857-3.832,16.846-4.729,25.58-4.386s13.806,1.287,22.514,2c-1.946-4.844-.751-8.954-3.507-13.382-4.068-6.512-8.453-5.415-15.394-4.809C104.293,94.307,96.866,95.093,89.513,96.371Z" transform="translate(-48.989 -71.124)" fill="url(#linear-gradient)"/>
    <path id="Path_39135" data-name="Path 39135" d="M154.439,344.6a17.855,17.855,0,0,1-1.891,4.508c-4.829,8.428-14.276,13.3-23.794,15.278s-19.338,1.555-29.054,2c-13.107.6-26.184,2.81-39.3,2.1a88.874,88.874,0,0,1-18.384-2.978c-4.025-1.1-12.343-2.527-14.777-6.262-1.523-2.327-1.773-6.687-1.823-10.359.912.143,1.813.358,2.61.433,2.695.25,5.423.278,8.125.361q8.583.278,17.179.368,34.216.363,68.377-2.254Q138.106,346.541,154.439,344.6Z" transform="translate(-23.964 -259.577)" fill="#68e1fd" opacity="0.24" style="isolation: isolate"/>
    <rect id="Rectangle_162399" data-name="Rectangle 162399" width="3.409" height="21.029" transform="translate(33.275 72.555)" fill="#68e1fd"/>
    <rect id="Rectangle_162400" data-name="Rectangle 162400" width="3.409" height="21.029" transform="translate(33.275 72.555)" fill="url(#linear-gradient-2)"/>
    <path id="Path_39136" data-name="Path 39136" d="M128.171,256.061v8.333H104.81v-8.333a4.343,4.343,0,0,1,4.348-4.341h14.667A4.346,4.346,0,0,1,128.171,256.061Z" transform="translate(-83.47 -189.96)" fill="#68e1fd"/>
    <path id="Path_39137" data-name="Path 39137" d="M91.387,249.48h0a3.757,3.757,0,0,1,3.757,3.757v8.145H87.63v-8.14a3.757,3.757,0,0,1,3.757-3.762Z" transform="translate(-65.681 -186.996)" fill="url(#linear-gradient-3)"/>
    <path id="Path_39138" data-name="Path 39138" d="M144.88,256.061v8.33H130.486v-8.819a4.975,4.975,0,0,0-3.386-3.852h13.432A4.346,4.346,0,0,1,144.88,256.061Z" transform="translate(-100.177 -189.96)" fill="url(#linear-gradient-4)"/>
    <rect id="Rectangle_162401" data-name="Rectangle 162401" width="16.471" height="1.195" rx="0.597" transform="translate(13.839 73.239)" fill="#68e1fd"/>
    <rect id="Rectangle_162402" data-name="Rectangle 162402" width="16.471" height="1.195" rx="0.597" transform="translate(13.839 73.239)" fill="url(#linear-gradient-5)"/>
    <path id="Path_39139" data-name="Path 39139" d="M93.077,368.717c-1.986.356-3.955.814-5.961,1-1.3.125-2.74.19-3.684,1.1a1.252,1.252,0,0,0-.421.751c-.053.626.6,1.064,1.187,1.295a17.685,17.685,0,0,0,5.4.987c2.986.188,5.981.193,8.977.2h8.917c2.635,0,5.555-.108,7.441-1.944a2.332,2.332,0,0,0,.766-1.33,2.056,2.056,0,0,0-1.3-1.976c-1.33-.606-3.321-.481-4.759-.641q-2.843-.293-5.688-.336A58,58,0,0,0,93.077,368.717Z" transform="translate(-67.128 -276.977)" fill="#68e1fd" opacity="0.24" style="isolation: isolate"/>
    <path id="Path_39140" data-name="Path 39140" d="M162.017,270.9c-.033.108-.128.431-.155.548l-.318,1.18a.537.537,0,0,0-.023.16.123.123,0,0,0,.14.133.594.594,0,0,0,.333-.138,1.3,1.3,0,0,0,.431-1,1.327,1.327,0,0,0-.611-1.152,1.884,1.884,0,0,0-.952-.223,1.783,1.783,0,0,0-1.909,1.8,1.615,1.615,0,0,0,1.781,1.678,2.88,2.88,0,0,0,.814-.118,2.352,2.352,0,0,0,.6-.281l.323.468a2.654,2.654,0,0,1-.664.308,3.887,3.887,0,0,1-1.127.168,2.374,2.374,0,0,1-1.753-.631,2.186,2.186,0,0,1-.616-1.573,2.292,2.292,0,0,1,.649-1.658,2.62,2.62,0,0,1,1.956-.729,1.947,1.947,0,0,1,2.121,1.909,1.788,1.788,0,0,1-.5,1.28,1.418,1.418,0,0,1-1,.436.526.526,0,0,1-.456-.208.338.338,0,0,1-.048-.163.869.869,0,0,1-.714.333c-.526,0-.859-.393-.859-1a1.511,1.511,0,0,1,1.295-1.641.589.589,0,0,1,.591.3l.053-.188Zm-1.095,1.58a2,2,0,0,0,.21-.819c0-.218-.12-.368-.308-.368a.616.616,0,0,0-.521.383,1.849,1.849,0,0,0-.213.8c0,.283.108.431.311.431S160.782,272.754,160.923,272.484Z" transform="translate(-123.567 -203.538)" fill="#68e1fd"/>
    <path id="Path_39141" data-name="Path 39141" d="M343.66,117.59l-32.6,11.273-4.984-10.752Z" transform="translate(-229.417 -88.14)" fill="#68e1fd"/>
    <path id="Path_39142" data-name="Path 39142" d="M343.66,117.59l-32.6,11.273-4.984-10.752Z" transform="translate(-229.417 -88.14)" fill="url(#linear-gradient-6)"/>
    <path id="Path_39143" data-name="Path 39143" d="M307.741,121.83l28.39-1.886,7.529-2.354-37.58.521Z" transform="translate(-229.417 -88.14)" fill="url(#linear-gradient-7)"/>
    <path id="Path_39144" data-name="Path 39144" d="M279.8,72.14l46.256,11.727-40.237-4.8Z" transform="translate(-209.719 -54.074)" fill="#68e1fd"/>
    <path id="Path_39145" data-name="Path 39145" d="M196.13,106.623l26.975-6.833,40.237,4.8Z" transform="translate(-147.006 -74.798)" fill="#68e1fd"/>
    <path id="Path_39146" data-name="Path 39146" d="M279.8,72.14l46.256,11.727-40.237-4.8Z" transform="translate(-209.719 -54.074)" fill="url(#linear-gradient-8)"/>
    <rect id="Rectangle_162403" data-name="Rectangle 162403" width="9.695" height="5.976" transform="translate(47.372 35.718) rotate(1.75)" fill="#68e1fd"/>
    <path id="Path_39147" data-name="Path 39147" d="M198.11,148.879l-9.69-.3.18-5.974,9.881.223Z" transform="translate(-141.227 -106.894)" fill="url(#linear-gradient-9)"/>
    <path id="Path_39148" data-name="Path 39148" d="M189.14,142.61l4.711,5.082,5.014-4.7Z" transform="translate(-141.766 -106.894)" fill="url(#linear-gradient-10)"/>
    <rect id="Rectangle_162404" data-name="Rectangle 162404" width="9.695" height="5.976" transform="matrix(0.902, 0.431, -0.431, 0.902, 30.912, 27.428)" fill="#68e1fd"/>
    <path id="Path_39149" data-name="Path 39149" d="M121.866,119.1l-8.746-4.185,2.58-5.39,8.947,4.2Z" transform="translate(-84.787 -82.091)" fill="url(#linear-gradient-11)"/>
    <path id="Path_39150" data-name="Path 39150" d="M123.42,109.52l2.257,6.552,6.482-2.274Z" transform="translate(-92.507 -82.091)" fill="url(#linear-gradient-12)"/>
    <rect id="Rectangle_162405" data-name="Rectangle 162405" width="6.367" height="3.925" transform="translate(20.071 47.367) rotate(-19.08)" fill="#68e1fd"/>
    <path id="Path_39151" data-name="Path 39151" d="M87.431,184.277l-6.019,2.081-1.282-3.709,6.116-2.169Z" transform="translate(-60.059 -135.278)" fill="url(#linear-gradient-13)"/>
    <path id="Path_39152" data-name="Path 39152" d="M80.13,183.054l4.078,2.019,1.981-4.053Z" transform="translate(-60.059 -135.683)" fill="url(#linear-gradient-14)"/>
    <rect id="Rectangle_162406" data-name="Rectangle 162406" width="6.219" height="3.832" transform="translate(10.492 43.372) rotate(-19.08)" fill="#68e1fd"/>
    <path id="Path_39153" data-name="Path 39153" d="M49.008,168.429l-5.876,2.031-1.252-3.622,5.971-2.119Z" transform="translate(-31.39 -123.466)" fill="url(#linear-gradient-15)"/>
    <path id="Path_39154" data-name="Path 39154" d="M41.88,167.236l3.982,1.974,1.934-3.96Z" transform="translate(-31.39 -123.863)" fill="url(#linear-gradient-16)"/>
    <rect id="Rectangle_162407" data-name="Rectangle 162407" width="4.791" height="2.953" transform="translate(13.438 57.034) rotate(18)" fill="#68e1fd"/>
    <path id="Path_39155" data-name="Path 39155" d="M54.546,232.008,49.99,230.53l.914-2.81,4.654,1.473Z" transform="translate(-37.468 -170.687)" fill="url(#linear-gradient-17)"/>
    <path id="Path_39156" data-name="Path 39156" d="M53.64,227.72l1.53,3.063,3.028-1.535Z" transform="translate(-40.204 -170.687)" fill="url(#linear-gradient-18)"/>
    <rect id="Rectangle_162408" data-name="Rectangle 162408" width="8.664" height="5.34" transform="translate(50.731 22.138) rotate(-21.47)" fill="#68e1fd"/>
    <path id="Path_39157" data-name="Path 39157" d="M212.559,80.344,204.5,83.515l-1.956-4.969,8.193-3.3Z" transform="translate(-151.81 -56.405)" fill="url(#linear-gradient-19)"/>
    <path id="Path_39158" data-name="Path 39158" d="M202.54,79.108l5.66,2.515L210.663,76Z" transform="translate(-151.81 -56.967)" fill="url(#linear-gradient-20)"/>
    <rect id="Rectangle_162409" data-name="Rectangle 162409" width="10.514" height="6.482" transform="translate(81.663 18.072) rotate(5.62)" fill="#68e1fd"/>
    <path id="Path_39159" data-name="Path 39159" d="M333.977,79.631,323.51,78.6l.636-6.452,10.672.967Z" transform="translate(-242.481 -54.081)" fill="url(#linear-gradient-21)"/>
    <path id="Path_39160" data-name="Path 39160" d="M326.05,72.15l4.726,5.843,5.768-4.714Z" transform="translate(-244.385 -54.081)" fill="url(#linear-gradient-22)"/>
    <path id="Path_39161" data-name="Path 39161" d="M196.13,106.623l26.975-6.833,40.237,4.8Z" transform="translate(-147.006 -74.798)" fill="url(#linear-gradient-23)"/>
  </g>
</svg>
