<svg id="SvgjsG1014" xmlns="http://www.w3.org/2000/svg" width="30.472" height="30.472" viewBox="0 0 30.472 30.472">
  <g id="Ebene_1" data-name="Ebene 1">
    <path id="Path_12054" data-name="Path 12054" d="M30.472,15.236A15.236,15.236,0,1,0,12.855,30.287V19.64H8.987v-4.4h3.869V11.879c0-3.819,2.275-5.928,5.755-5.928a23.43,23.43,0,0,1,3.411.3V10H20.1a2.2,2.2,0,0,0-2.483,2.379v2.858h4.226l-.676,4.4h-3.55V30.287A15.24,15.24,0,0,0,30.472,15.236Z" fill="#1877f2"/>
    <path id="Path_12055" data-name="Path 12055" d="M314.18,213.689l.676-4.4H310.63v-2.858a2.2,2.2,0,0,1,2.483-2.379h1.921V200.3a23.429,23.429,0,0,0-3.411-.3c-3.48,0-5.755,2.109-5.755,5.928v3.357H302v4.4h3.868v10.647a15.4,15.4,0,0,0,4.761,0V213.689Z" transform="translate(-293.013 -194.048)" fill="#fff"/>
  </g>
</svg>
