<svg id="Group_177253" data-name="Group 177253" xmlns="http://www.w3.org/2000/svg" width="84.301" height="37.131" viewBox="0 0 84.301 37.131">
  <rect id="Rectangle_162377" data-name="Rectangle 162377" width="72.901" height="2" transform="translate(0 18.565)" fill="#fff"/>
  <g id="Group_177225" data-name="Group 177225" transform="translate(51.887 0)">
    <path id="Path_39067" data-name="Path 39067" d="M848.616,702.582c1.953-1,3.115.158,5.86,2.956a44.262,44.262,0,0,0,5.86,4.91,40.7,40.7,0,0,0-5.86,4.91c-2.745,2.745-3.906,3.906-5.86,2.956-1.742-.9-3.907-3.907-6.863-4.909l-1.953-2.956,1.953-2.956C844.71,706.489,846.874,703.479,848.616,702.582Z" transform="translate(-827.922 -691.849)" fill="#fff"/>
    <g id="Group_177224" data-name="Group 177224" transform="translate(0)">
      <g id="Group_177220" data-name="Group 177220" transform="translate(0 17.49)">
        <g id="Group_177218" data-name="Group 177218">
          <path id="Path_39068" data-name="Path 39068" d="M867.831,716.6l1.373-.9a4.6,4.6,0,0,0,3.643,1.742c2.217,0,7.707.581,10.875,5.49,3.273,4.962,1.478,9.819-1.953,12.036l-.9-1.372c2.217-1.425,4.434-5.226,1.425-9.766-2.745-4.223-7.6-4.7-9.5-4.751A6.013,6.013,0,0,1,867.831,716.6Z" transform="translate(-867.831 -715.7)" fill="#fff"/>
        </g>
        <g id="Group_177219" data-name="Group 177219" transform="translate(8.853 13.076)">
          <ellipse id="Ellipse_648" data-name="Ellipse 648" cx="2.481" cy="2.481" rx="2.481" ry="2.481" transform="translate(0.755 0.808)" fill="#fff"/>
          <path id="Path_39069" data-name="Path 39069" d="M877.053,746.5a3.28,3.28,0,1,0-4.54-.95A3.293,3.293,0,0,0,877.053,746.5Zm-.9-1.373a1.64,1.64,0,1,1,.475-2.27A1.676,1.676,0,0,1,876.156,745.131Z" transform="translate(-871.969 -740.469)" fill="#fff"/>
        </g>
      </g>
      <g id="Group_177223" data-name="Group 177223" transform="translate(0)">
        <g id="Group_177221" data-name="Group 177221" transform="translate(0 0.333)">
          <path id="Path_39070" data-name="Path 39070" d="M867.831,701.571l1.373.9a4.6,4.6,0,0,1,3.643-1.742c2.217,0,7.707-.581,10.875-5.49,3.273-4.962,1.478-9.819-1.953-12.036l-.9,1.372c2.217,1.425,4.434,5.226,1.425,9.766-2.745,4.223-7.6,4.7-9.5,4.751A6.013,6.013,0,0,0,867.831,701.571Z" transform="translate(-867.831 -683.2)" fill="#fff"/>
        </g>
        <g id="Group_177222" data-name="Group 177222" transform="translate(8.8)">
          <ellipse id="Ellipse_649" data-name="Ellipse 649" cx="2.481" cy="2.481" rx="2.481" ry="2.481" transform="translate(0.808 0.808)" fill="#fff"/>
          <path id="Path_39071" data-name="Path 39071" d="M872.614,684.064a3.28,3.28,0,1,0,4.54-.95A3.256,3.256,0,0,0,872.614,684.064Zm4.17,2.692a1.64,1.64,0,1,1-.475-2.27A1.676,1.676,0,0,1,876.784,686.756Z" transform="translate(-872.069 -682.569)" fill="#fff"/>
        </g>
      </g>
    </g>
  </g>
</svg>
