<svg id="search" xmlns="http://www.w3.org/2000/svg" width="30.472" height="30.472" viewBox="0 0 30.472 30.472">
  <path id="Path_12045" data-name="Path 12045" d="M6.753,148.454l-1.061,3.96-3.877.082A15.263,15.263,0,0,1,1.7,138.268h0l3.451.633,1.512,3.431a9.093,9.093,0,0,0,.085,6.122Z" transform="translate(0 -130.039)" fill="#fbbb00"/>
  <path id="Path_12046" data-name="Path 12046" d="M276.263,208.176a15.23,15.23,0,0,1-5.431,14.728h0l-4.347-.222-.615-3.841a9.081,9.081,0,0,0,3.907-4.637h-8.147v-6.027h14.635Z" transform="translate(-246.057 -195.786)" fill="#518ef8"/>
  <path id="Path_12047" data-name="Path 12047" d="M53.467,318.111h0a15.241,15.241,0,0,1-22.959-4.661l4.937-4.042A9.061,9.061,0,0,0,48.5,314.048Z" transform="translate(-28.693 -290.994)" fill="#28b446"/>
  <path id="Path_12048" data-name="Path 12048" d="M51.882,3.508,46.946,7.548a9.06,9.06,0,0,0-13.357,4.744L28.625,8.229h0A15.239,15.239,0,0,1,51.882,3.508Z" transform="translate(-26.92)" fill="#f14336"/>
</svg>
