<svg id="SvgjsG1019" xmlns="http://www.w3.org/2000/svg" xmlns:xlink="http://www.w3.org/1999/xlink" width="17.048" height="17.048" viewBox="0 0 17.048 17.048">
  <defs>
    <clipPath id="clip-path">
      <rect id="Rectangle_162392" data-name="Rectangle 162392" width="17.048" height="17.048" fill="#fdfdfd"/>
    </clipPath>
  </defs>
  <g id="Group_177271" data-name="Group 177271" transform="translate(0 0)" style="isolation: isolate">
    <g id="Group_177270" data-name="Group 177270" transform="translate(0 0)" clip-path="url(#clip-path)">
      <path id="Path_39081" data-name="Path 39081" d="M3.962,16.665H6.518a.886.886,0,0,1,.545.226l2.929,2.93c.374.374.678.248.678-.281V7.4c0-.529-.3-.655-.678-.28L7.063,10.051a.884.884,0,0,1-.545.226H3.962A.959.959,0,0,0,3,11.235v4.472A.959.959,0,0,0,3.962,16.665Z" transform="translate(-1.391 -5.622)" fill="#fdfdfd"/>
      <path id="Path_39082" data-name="Path 39082" d="M41.551,9.849h0a6.843,6.843,0,0,0-1.306-4.021,7.04,7.04,0,0,0-3.338-2.5l-.3-.107a.319.319,0,0,1-.194-.408l.214-.6a.319.319,0,0,1,.408-.194l.3.107A8.31,8.31,0,0,1,41.28,5.077a8.127,8.127,0,0,1,1.549,4.772h0a8.124,8.124,0,0,1-1.549,4.769,8.316,8.316,0,0,1-3.948,2.955l-.3.107a.319.319,0,0,1-.408-.194l-.214-.6a.319.319,0,0,1,.194-.408l.3-.107a7.04,7.04,0,0,0,3.338-2.5A6.843,6.843,0,0,0,41.551,9.849Zm1.278,0Zm0,0" transform="translate(-26.044 -2)" fill="#fdfdfd" fill-rule="evenodd"/>
      <path id="Path_39083" data-name="Path 39083" d="M36.775,15.757l-.286-.144a.32.32,0,0,1-.142-.429l.288-.573a.319.319,0,0,1,.429-.141l.283.143a5.46,5.46,0,0,1,2.067,1.811,4.631,4.631,0,0,1,0,5.209,5.462,5.462,0,0,1-2.067,1.811l-.283.143a.319.319,0,0,1-.429-.141l-.288-.57a.319.319,0,0,1,.142-.429l.286-.144a4.21,4.21,0,0,0,1.581-1.386,3.355,3.355,0,0,0,0-3.775A4.183,4.183,0,0,0,36.775,15.757Z" transform="translate(-25.986 -11.182)" fill="#fdfdfd"/>
    </g>
  </g>
</svg>
