<svg xmlns="http://www.w3.org/2000/svg" width="153.3" height="70.336" viewBox="0 0 153.3 70.336">
  <g id="Group_178356" data-name="Group 178356" transform="translate(-779.55 -1554.569)">
    <g id="Group_177233" data-name="Group 177233" transform="translate(-406.65 872)">
      <path id="Path_39072" data-name="Path 39072" d="M1317.3,732.5c3.7,1.9,5.9-.3,11.1-5.6a83.838,83.838,0,0,1,11.1-9.3,77.086,77.086,0,0,1-11.1-9.3c-5.2-5.2-7.4-7.4-11.1-5.6-3.3,1.7-7.4,7.4-13,9.3l-3.7,5.6,3.7,5.6C1309.9,725.1,1314,730.9,1317.3,732.5Z" fill="#ca9d54"/>
      <g id="Group_177232" data-name="Group 177232">
        <g id="Group_177228" data-name="Group 177228">
          <g id="Group_177226" data-name="Group 177226">
            <path id="Path_39073" data-name="Path 39073" d="M1278.1,718l2.6,1.7a8.71,8.71,0,0,1,6.9-3.3c4.2,0,14.6-1.1,20.6-10.4,6.2-9.4,2.8-18.6-3.7-22.8l-1.7,2.6c4.2,2.7,8.4,9.9,2.8,18.5-5.2,8-14.4,8.9-18,9A11.678,11.678,0,0,0,1278.1,718Z" fill="#ca9d54"/>
          </g>
          <g id="Group_177227" data-name="Group 177227">
            <circle id="Ellipse_650" data-name="Ellipse 650" cx="4.7" cy="4.7" r="4.7" transform="translate(1296.4 684.1)" fill="#ca9d54"/>
            <path id="Path_39074" data-name="Path 39074" d="M1304.5,683.6a6.213,6.213,0,1,1-8.6,1.8A6.168,6.168,0,0,1,1304.5,683.6Zm-1.7,2.6a3.106,3.106,0,1,0,.9,4.3A3.175,3.175,0,0,0,1302.8,686.2Z" fill="#ca9d54"/>
          </g>
        </g>
        <g id="Group_177231" data-name="Group 177231">
          <g id="Group_177229" data-name="Group 177229">
            <path id="Path_39075" data-name="Path 39075" d="M1278.1,717.4l2.6-1.7a8.71,8.71,0,0,0,6.9,3.3c4.2,0,14.6,1.1,20.6,10.4,6.2,9.4,2.8,18.6-3.7,22.8l-1.7-2.6c4.2-2.7,8.4-9.9,2.8-18.5-5.2-8-14.4-8.9-18-9A11.678,11.678,0,0,1,1278.1,717.4Z" fill="#ca9d54"/>
          </g>
          <g id="Group_177230" data-name="Group 177230">
            <circle id="Ellipse_651" data-name="Ellipse 651" cx="4.7" cy="4.7" r="4.7" transform="translate(1296.4 742)" fill="#ca9d54"/>
            <path id="Path_39076" data-name="Path 39076" d="M1295.9,750.1a6.213,6.213,0,1,1,8.6,1.8A6.256,6.256,0,0,1,1295.9,750.1Zm7.8-5.1a3.106,3.106,0,1,0-.9,4.3A3.175,3.175,0,0,0,1303.7,745Z" fill="#ca9d54"/>
          </g>
        </g>
      </g>
    </g>
    <rect id="Rectangle_162376" data-name="Rectangle 162376" width="126.9" height="4" transform="translate(779.55 1587.7)" fill="#ca9d54"/>
  </g>
</svg>
