<svg xmlns="http://www.w3.org/2000/svg" width="157.3" height="70.336" viewBox="0 0 157.3 70.336">
  <g id="Group_178357" data-name="Group 178357" transform="translate(-433.15 -1554.569)">
    <g id="Group_177225" data-name="Group 177225" transform="translate(-406.65 872)">
      <path id="Path_39067" data-name="Path 39067" d="M862,702.9c-3.7-1.9-5.9.3-11.1,5.6a83.838,83.838,0,0,1-11.1,9.3,77.086,77.086,0,0,1,11.1,9.3c5.2,5.2,7.4,7.4,11.1,5.6,3.3-1.7,7.4-7.4,13-9.3l3.7-5.6-3.7-5.6C869.4,710.3,865.3,704.6,862,702.9Z" fill="#ca9d54"/>
      <g id="Group_177224" data-name="Group 177224">
        <g id="Group_177220" data-name="Group 177220">
          <g id="Group_177218" data-name="Group 177218">
            <path id="Path_39068" data-name="Path 39068" d="M901.2,717.4l-2.6-1.7a8.711,8.711,0,0,1-6.9,3.3c-4.2,0-14.6,1.1-20.6,10.4-6.2,9.4-2.8,18.6,3.7,22.8l1.7-2.6c-4.2-2.7-8.4-9.9-2.7-18.5,5.2-8,14.4-8.9,18-9A11.39,11.39,0,0,0,901.2,717.4Z" fill="#ca9d54"/>
          </g>
          <g id="Group_177219" data-name="Group 177219">
            <circle id="Ellipse_648" data-name="Ellipse 648" cx="4.7" cy="4.7" r="4.7" transform="translate(873.6 742)" fill="#ca9d54"/>
            <path id="Path_39069" data-name="Path 39069" d="M874.8,751.9a6.213,6.213,0,1,1,8.6-1.8A6.237,6.237,0,0,1,874.8,751.9Zm1.7-2.6a3.106,3.106,0,1,0-.9-4.3A3.175,3.175,0,0,0,876.5,749.3Z" fill="#ca9d54"/>
          </g>
        </g>
        <g id="Group_177223" data-name="Group 177223">
          <g id="Group_177221" data-name="Group 177221">
            <path id="Path_39070" data-name="Path 39070" d="M901.2,718l-2.6,1.7a8.711,8.711,0,0,0-6.9-3.3c-4.2,0-14.6-1.1-20.6-10.4-6.2-9.4-2.8-18.6,3.7-22.8l1.7,2.6c-4.2,2.7-8.4,9.9-2.7,18.5,5.2,8,14.4,8.9,18,9A11.389,11.389,0,0,1,901.2,718Z" fill="#ca9d54"/>
          </g>
          <g id="Group_177222" data-name="Group 177222">
            <circle id="Ellipse_649" data-name="Ellipse 649" cx="4.7" cy="4.7" r="4.7" transform="translate(873.6 684.1)" fill="#ca9d54"/>
            <path id="Path_39071" data-name="Path 39071" d="M883.5,685.4a6.213,6.213,0,1,1-8.6-1.8A6.168,6.168,0,0,1,883.5,685.4Zm-7.9,5.1a3.106,3.106,0,1,0,.9-4.3A3.175,3.175,0,0,0,875.6,690.5Z" fill="#ca9d54"/>
          </g>
        </g>
      </g>
    </g>
    <rect id="Rectangle_162377" data-name="Rectangle 162377" width="126.9" height="4" transform="translate(463.55 1587.7)" fill="#ca9d54"/>
  </g>
</svg>
