<svg xmlns="http://www.w3.org/2000/svg" width="84.3" height="37.131" viewBox="0 0 84.3 37.131">
  <g id="Group_177252" data-name="Group 177252" transform="translate(-91.999 -4338.897)">
    <rect id="Rectangle_162377" data-name="Rectangle 162377" width="72.9" height="2" transform="translate(103.399 4357.463)" fill="#ca9d54"/>
    <g id="Group_177225" data-name="Group 177225" transform="translate(-747.801 3656.328)">
      <path id="Path_39067" data-name="Path 39067" d="M851.52,702.582c-1.953-1-3.115.158-5.86,2.956a44.26,44.26,0,0,1-5.86,4.91,40.694,40.694,0,0,1,5.86,4.91c2.745,2.745,3.906,3.906,5.86,2.956,1.742-.9,3.906-3.907,6.863-4.909l1.953-2.956-1.953-2.956C855.426,706.489,853.262,703.479,851.52,702.582Z" transform="translate(0 -9.28)" fill="#ca9d54"/>
      <g id="Group_177224" data-name="Group 177224" transform="translate(854.598 682.569)">
        <g id="Group_177220" data-name="Group 177220" transform="translate(0 17.49)">
          <g id="Group_177218" data-name="Group 177218">
            <path id="Path_39068" data-name="Path 39068" d="M885.447,716.6l-1.373-.9a4.6,4.6,0,0,1-3.643,1.742c-2.217,0-7.707.581-10.875,5.49-3.273,4.962-1.478,9.819,1.953,12.036l.9-1.372c-2.217-1.425-4.434-5.226-1.425-9.766,2.745-4.223,7.6-4.7,9.5-4.751A6.013,6.013,0,0,0,885.447,716.6Z" transform="translate(-867.831 -715.7)" fill="#ca9d54"/>
          </g>
          <g id="Group_177219" data-name="Group 177219" transform="translate(2.184 13.076)">
            <circle id="Ellipse_648" data-name="Ellipse 648" cx="2.481" cy="2.481" r="2.481" transform="translate(0.861 0.808)" fill="#ca9d54"/>
            <path id="Path_39069" data-name="Path 39069" d="M873.464,746.5a3.28,3.28,0,1,1,4.54-.95A3.293,3.293,0,0,1,873.464,746.5Zm.9-1.373a1.64,1.64,0,1,0-.475-2.27A1.676,1.676,0,0,0,874.361,745.131Z" transform="translate(-871.969 -740.469)" fill="#ca9d54"/>
          </g>
        </g>
        <g id="Group_177223" data-name="Group 177223" transform="translate(0)">
          <g id="Group_177221" data-name="Group 177221" transform="translate(0 0.333)">
            <path id="Path_39070" data-name="Path 39070" d="M885.447,701.571l-1.373.9a4.6,4.6,0,0,0-3.643-1.742c-2.217,0-7.707-.581-10.875-5.49-3.273-4.962-1.478-9.819,1.953-12.036l.9,1.372c-2.217,1.425-4.434,5.226-1.425,9.766,2.745,4.223,7.6,4.7,9.5,4.751A6.012,6.012,0,0,1,885.447,701.571Z" transform="translate(-867.831 -683.2)" fill="#ca9d54"/>
          </g>
          <g id="Group_177222" data-name="Group 177222" transform="translate(2.237)">
            <circle id="Ellipse_649" data-name="Ellipse 649" cx="2.481" cy="2.481" r="2.481" transform="translate(0.808 0.808)" fill="#ca9d54"/>
            <path id="Path_39071" data-name="Path 39071" d="M878.1,684.064a3.28,3.28,0,1,1-4.54-.95A3.256,3.256,0,0,1,878.1,684.064Zm-4.17,2.692a1.64,1.64,0,1,0,.475-2.27A1.676,1.676,0,0,0,873.933,686.756Z" transform="translate(-872.069 -682.569)" fill="#ca9d54"/>
          </g>
        </g>
      </g>
    </g>
  </g>
</svg>
