<svg id="SvgjsG1014" xmlns="http://www.w3.org/2000/svg" width="30.472" height="30.472" viewBox="0 0 30.472 30.472">
  <g id="Layer_1" data-name="Layer 1" transform="translate(0 0)">
    <circle id="Ellipse_608" data-name="Ellipse 608" cx="15.236" cy="15.236" r="15.236" fill="#38a8e0"/>
    <path id="Path_12056" data-name="Path 12056" d="M45.454,39.131a6.749,6.749,0,0,1-1.939.531A3.385,3.385,0,0,0,45,37.794a6.758,6.758,0,0,1-2.144.818A3.378,3.378,0,0,0,37.1,41.691a9.583,9.583,0,0,1-6.958-3.526,3.38,3.38,0,0,0,1.044,4.506,3.361,3.361,0,0,1-1.528-.423v.042A3.378,3.378,0,0,0,32.368,45.6a3.382,3.382,0,0,1-1.526.059A3.38,3.38,0,0,0,34,48,6.772,6.772,0,0,1,29.8,49.441a6.849,6.849,0,0,1-.8-.035,9.6,9.6,0,0,0,14.776-8.088V40.88A6.859,6.859,0,0,0,45.454,39.131Z" transform="translate(-21.991 -28.528)" fill="#fff"/>
  </g>
</svg>
